<?xml version="1.0" encoding="UTF-8"?><svg xmlns="http://www.w3.org/2000/svg" viewBox="0 0 730.2 176.64"><defs><style>.d,.e{fill:#fff;}.f{fill:#21409a;}.e,.g{fill-rule:evenodd;}.h,.g{fill:#74c044;}.i{fill:#ed1c24;}.j{fill:#58595b;}</style></defs><g id="a"/><g id="b"><g id="c"><g><g><g><path class="j" d="M162.66,111.02v-25.41h4.45v25.41h-4.45Z"/><path class="j" d="M171.49,111.02v-25.41h4.72l11.65,18.72v-18.72h4.24v25.41h-4.7l-11.57-18.69h-.11v18.69h-4.23Z"/><path class="j" d="M194.05,89.45v-3.84h20.57v3.84h-8.08v21.57h-4.45v-21.57h-8.04Z"/><path class="j" d="M216.69,111.02v-25.41h18.29v3.84h-13.84v6.66h12.81v3.63h-12.81v7.44h14.09v3.84h-18.54Z"/><path class="j" d="M238.22,111.02v-25.41h12.14c2.75,0,4.84,.6,6.26,1.8,1.42,1.2,2.13,2.89,2.13,5.07,0,3.3-1.4,5.43-4.2,6.41v.07c2.51,.36,3.77,2.15,3.77,5.37,0,3.46,.46,5.69,1.39,6.69h-4.77c-.45-.74-.68-1.98-.68-3.74,0-2.44-.33-4.15-1-5.13-.74-1.07-2.09-1.6-4.06-1.6h-6.55v10.46h-4.45Zm4.45-21.78v7.94h7.3c2.9,0,4.34-1.35,4.34-4.06s-1.47-3.88-4.41-3.88h-7.22Z"/><path class="j" d="M262.21,111.02v-25.41h4.72l11.65,18.72v-18.72h4.24v25.41h-4.7l-11.57-18.69h-.11v18.69h-4.23Z"/><path class="j" d="M284.24,111.02l9.75-25.41h4.73l9.79,25.41h-4.77l-2.39-6.73h-10.14l-2.39,6.73h-4.59Zm12.03-21.04l-3.84,10.93h7.76l-3.81-10.93h-.11Z"/><path class="j" d="M307.62,89.45v-3.84h20.57v3.84h-8.08v21.57h-4.45v-21.57h-8.04Z"/><path class="j" d="M330.26,111.02v-25.41h4.45v25.41h-4.45Z"/><path class="j" d="M350.08,85c3.7,0,6.68,1.3,8.93,3.91,2.16,2.52,3.24,5.65,3.24,9.4s-1.08,6.87-3.24,9.36c-2.26,2.63-5.23,3.95-8.93,3.95s-6.68-1.32-8.93-3.95c-2.16-2.49-3.24-5.61-3.24-9.36s1.08-6.88,3.24-9.4c2.25-2.61,5.23-3.91,8.93-3.91Zm0,3.63c-2.54,0-4.51,1.01-5.91,3.03-1.21,1.76-1.81,3.98-1.81,6.66s.6,4.9,1.81,6.66c1.4,2.02,3.37,3.03,5.91,3.03s4.51-1.01,5.91-3.03c1.21-1.76,1.81-3.97,1.81-6.66s-.61-4.9-1.81-6.66c-1.4-2.02-3.37-3.03-5.91-3.03Z"/><path class="j" d="M365.25,111.02v-25.41h4.72l11.65,18.72v-18.72h4.24v25.41h-4.7l-11.57-18.69h-.11v18.69h-4.23Z"/><path class="j" d="M387.28,111.02l9.75-25.41h4.73l9.79,25.41h-4.77l-2.39-6.73h-10.14l-2.39,6.73h-4.59Zm12.03-21.04l-3.84,10.93h7.76l-3.81-10.93h-.11Z"/><path class="j" d="M413.08,111.02v-25.41h4.45v21.57h12.92v3.84h-17.37Z"/></g><g><path class="f" d="M162.44,77.71V25.84h9.08v51.86h-9.08Z"/><path class="f" d="M175.88,33.69v-7.85h41.98v7.85h-16.49v44.02h-9.08V33.69h-16.42Z"/><path class="f" d="M216.04,77.71l19.9-51.86h9.66l19.97,51.86h-9.73l-4.87-13.73h-20.7l-4.87,13.73h-9.37Zm24.55-42.93l-7.85,22.3h15.84l-7.77-22.3h-.22Z"/><path class="f" d="M268.49,77.71V25.84h9.08v20.63h23.61V25.84h9.08v51.86h-9.08v-23.39h-23.61v23.39h-9.08Z"/><path class="f" d="M313.31,77.71l19.9-51.86h9.66l19.97,51.86h-9.73l-4.87-13.73h-20.7l-4.87,13.73h-9.37Zm24.55-42.93l-7.85,22.3h15.84l-7.77-22.3h-.22Z"/><path class="f" d="M365.97,77.71V25.84h24.77c5.62,0,9.88,1.22,12.78,3.67,2.91,2.45,4.36,5.9,4.36,10.35,0,6.73-2.86,11.09-8.57,13.08v.14c5.13,.73,7.7,4.38,7.7,10.97,0,7.07,.94,11.62,2.83,13.66h-9.73c-.92-1.5-1.38-4.04-1.38-7.63,0-4.99-.68-8.47-2.03-10.46-1.5-2.18-4.26-3.27-8.28-3.27h-13.37v21.36h-9.08Zm9.08-44.46v16.2h14.89c5.91,0,8.86-2.76,8.86-8.28s-3-7.92-9.01-7.92h-14.75Z"/><path class="f" d="M415.29,77.71V25.84h9.08v51.86h-9.08Z"/></g><g><path class="j" d="M190.06,125.48h-5.46c-1.05-4.13-3.64-6.2-7.77-6.2-3.11,0-5.53,1.24-7.25,3.71-1.48,2.15-2.23,4.88-2.23,8.16s.74,6.01,2.23,8.16c1.72,2.47,4.13,3.71,7.25,3.71,2.33,0,4.2-.8,5.63-2.4,1.31-1.45,2.08-3.38,2.31-5.76h5.33c-.23,3.75-1.56,6.79-3.99,9.12-2.43,2.33-5.52,3.49-9.28,3.49-4.54,0-8.19-1.62-10.96-4.85-2.65-3.06-3.97-6.88-3.97-11.48s1.32-8.47,3.97-11.52c2.76-3.2,6.42-4.8,10.96-4.8,3.58,0,6.58,.93,8.99,2.79,2.5,1.95,3.91,4.57,4.23,7.86Z"/><path class="j" d="M219.7,114.83c4.54,0,8.19,1.6,10.96,4.8,2.65,3.09,3.97,6.93,3.97,11.52s-1.32,8.43-3.97,11.48c-2.76,3.23-6.42,4.85-10.96,4.85s-8.19-1.62-10.96-4.85c-2.65-3.06-3.97-6.88-3.97-11.48s1.32-8.44,3.97-11.52c2.76-3.2,6.42-4.8,10.96-4.8Zm0,4.45c-3.11,0-5.53,1.24-7.25,3.71-1.48,2.15-2.23,4.88-2.23,8.16s.74,6.01,2.23,8.16c1.72,2.47,4.13,3.71,7.25,3.71s5.53-1.24,7.25-3.71c1.49-2.15,2.23-4.88,2.23-8.16s-.74-6.01-2.23-8.16c-1.72-2.47-4.13-3.71-7.25-3.71Z"/><path class="j" d="M250.96,146.74v-31.17h5.46v26.45h15.85v4.72h-21.3Z"/><path class="j" d="M287.36,146.74v-31.17h5.46v26.45h15.85v4.72h-21.3Z"/><path class="j" d="M323.77,146.74v-31.17h22.44v4.71h-16.98v8.16h15.71v4.45h-15.71v9.12h17.29v4.72h-22.74Z"/><path class="j" d="M389.82,130.33v16.41h-3.49l-.83-3.67c-1.43,1.63-2.86,2.77-4.3,3.43-1.44,.66-3.14,.98-5.09,.98-4.54,0-8.19-1.62-10.96-4.85-2.65-3.06-3.97-6.88-3.97-11.48s1.32-8.44,3.97-11.52c2.76-3.2,6.42-4.8,10.96-4.8,3.55,0,6.52,.9,8.91,2.71,2.56,1.89,4.04,4.54,4.45,7.95h-5.33c-.26-1.98-1.18-3.52-2.75-4.63-1.45-1.05-3.22-1.57-5.28-1.57-3.11,0-5.53,1.24-7.25,3.71-1.48,2.15-2.23,4.88-2.23,8.16s.74,6.01,2.23,8.16c1.69,2.44,4.1,3.68,7.25,3.71,2.76,.03,4.9-.72,6.4-2.25,1.5-1.53,2.28-3.63,2.34-6.31h-8.29v-4.15h13.27Z"/><path class="j" d="M407.1,146.74v-31.17h22.44v4.71h-16.98v8.16h15.71v4.45h-15.71v9.12h17.29v4.72h-22.74Z"/></g><g><path class="i" d="M71.16,.05s13.24-.62,29.98,3.13c23.59,5.29,32.41,12.47,32.41,12.47v62.84h-62.4V.05Z"/><path class="d" d="M75.76,5.9s11.38-.53,25.77,2.67c20.27,4.51,27.86,10.65,27.86,10.65v54.81h-53.62V5.9Z"/><path class="i" d="M0,86.07c0,16.15,0,25.35,0,25.35,0,1.55,.07,3.45,.07,5.56l.26,10.93c.05,24.35,45.19,42.29,62.39,48.56V86.07H0Z"/><path class="f" d="M133.73,86.07h-62.68v90.56c16.81-6.16,62.77-24.42,62.72-49.02l-.08-14.2c.03-.67,.05-1.33,.05-1.99,0,0,0-9.2,0-25.35"/><path class="d" d="M16.71,136.29c.26,.23,.57,.36,.89,.46,.14,.04,.29,.04,.44,.06,.11,.02,.23,.03,.35,.05,.33,.06,.5,.3,.57,.59,.09,.38,.3,.68,.53,.98,.03,.03,.06,.07,.1,.09,.23,.18,.45,.36,.69,.53,.13,.09,.27,.15,.41,.22,.9,.43,1.81,.44,2.73,.08,.45-.17,.8-.48,1.06-.89,.32-.48,.43-1.01,.35-1.57-.07-.46-.26-.88-.59-1.22-.33-.34-.74-.53-1.19-.61-.58-.11-1.15-.15-1.73-.07-.02,0-.05,0-.07,0-.14,0-.23-.05-.27-.18-.02-.05-.03-.11-.04-.16-.02-.08-.05-.17-.07-.25-.03-.13-.12-.19-.26-.19-.12,0-.23,0-.35,0-.21,0-.29-.07-.32-.29-.08-.65-.29-1.25-.58-1.82-.18-.35-.45-.62-.79-.81-.55-.32-1.13-.38-1.75-.21-.33,.09-.61,.26-.87,.48-.5,.42-.73,.97-.78,1.6-.04,.52,.03,1.03,.23,1.52,.16,.41,.39,.76,.68,1.08,.06,.07,.11,.13,.18,.19,.12,.1,.25,.19,.37,.29,0,0,0,0,0,0,.02,.02,.05,.04,.07,.06m24-25.09c-.55,.71-1.11,1.42-1.66,2.13-1.32,1.69-2.63,3.39-3.95,5.08-1.42,1.82-2.84,3.65-4.26,5.47-1.26,1.62,1.41-1.81,.15-.19-.45,.58-.9,1.16-1.36,1.74-.05,.07-.11,.13-.14,.22,.03,.03,.05,.06,.08,.09,.1,.08,.21,.16,.31,.25,.15,.13,.19,.33,.11,.49-.11,.22-.3,.34-.51,.28-.07-.02-.15-.06-.21-.1-.09-.06-.17-.13-.26-.2-.03-.03-.08-.04-.13-.07-.04,.05-.06,.1-.1,.15,.08,.1,.18,.16,.27,.23,.06,.05,.12,.1,.18,.15,.1,.1,.13,.23,.09,.37-.08,.32-.43,.46-.71,.28-.1-.07-.2-.15-.3-.23-.03-.03-.08-.05-.11-.07-.1,.06-.1,.16-.08,.24,.04,.16,.09,.32,.15,.47,.08,.19,.08,.36,0,.54-.09,.21-.23,.37-.43,.49-.17,.1-.34,.19-.52,.27-.31,.14-.61,.27-.93,.4-.11,.04-.19,.1-.26,.19-.18,.24-.36,.47-.55,.71-.03,.04-.06,.09-.09,.14,.04,.05,.06,.08,.09,.12,.14,.18,.29,.37,.44,.55,.51,.66,.89,1.38,1.16,2.16,.36,1.04,.48,2.1,.3,3.19-.11,.66-.34,1.28-.69,1.85-.23,.38-.52,.72-.85,1.03-.4,.39-.85,.69-1.35,.92-.73,.34-1.51,.53-2.31,.56-.46,.02-.91,.01-1.35-.06-.41-.06-.82-.14-1.21-.26-.28-.09-.56-.19-.84-.3-.49-.19-.94-.44-1.37-.72-.7-.44-1.32-.98-1.87-1.59-.24-.26-.44-.54-.65-.83-.5-.69-.86-1.45-1.11-2.26-.18-.59-.28-1.19-.29-1.8-.02-.84,.14-1.65,.48-2.42,.15-.34,.35-.65,.57-.95,.1-.15,.24-.27,.36-.4,.22-.25,.48-.48,.75-.67,.62-.43,1.29-.72,2.03-.89,.8-.18,1.6-.19,2.4-.09,.58,.07,1.14,.21,1.68,.41,.34,.12,.68,.24,.99,.43,.05,.03,.1,.04,.15,.06,.03-.02,.05-.03,.06-.05,.21-.27,.43-.54,.63-.82,.04-.05,.06-.11,.07-.17,.04-.21,.06-.42,.09-.63,.07-.35,.11-.71,.23-1.05,.05-.15,.12-.27,.23-.38,.19-.2,.39-.32,.69-.25,.16,.04,.33,.02,.49,.02,.08,0,.16-.02,.18-.13-.06-.05-.11-.1-.18-.15-.04-.03-.09-.06-.13-.1-.13-.13-.18-.35-.1-.5,.1-.18,.21-.29,.45-.28,.09,0,.16,.05,.24,.1,.09,.07,.17,.16,.3,.2,.03-.03,.06-.05,.08-.08,.01-.02,.01-.04,.02-.07-.07-.09-.16-.14-.25-.21-.24-.19-.29-.59,.11-.79,.14-.07,.27-.06,.39,.04,.08,.05,.15,.11,.23,.17,.03,.03,.08,.04,.13,.06,.04-.06,.08-.11,.12-.16,.35-.45,.7-.9,1.05-1.36,.81-1.04-2.31,2.98-1.5,1.94,.39-.51,.78-1.02,1.18-1.53,.81-1.04,1.62-2.08,2.43-3.11,.39-.5,.78-1.02,1.18-1.52,.81-1.04,1.62-2.08,2.42-3.12,.4-.51,.79-1.01,1.18-1.52,.81-1.04,1.62-2.08,2.42-3.11,.39-.5,.77-1,1.16-1.5,.81-1.03,1.61-2.06,2.41-3.1,.67-.86,1.34-1.72,2-2.58,.6-.76,1.19-1.53,1.79-2.3,.48-.62,.96-1.23,1.44-1.86,.09-.11,.18-.15,.3-.11,.04,.01,.08,.02,.11,.03,.34,.1,.65,.27,.94,.48,.44,.33,.79,.76,1.11,1.2,.05,.06,.08,.13,.12,.21-.06,.08-.11,.15-.16,.22-.42,.54-.85,1.09-1.27,1.63-.05,.07-.12,.12-.14,.21,.04,.09,.12,.13,.19,.19,.94,.73,1.88,1.46,2.81,2.19,.78,.61,1.56,1.21,2.34,1.82,.07,.05,.15,.09,.19,.19-.02,.03-.03,.07-.05,.1-.19,.28-.65,.86-.78,.97-.09,0-.14-.06-.2-.11-.71-.55-1.42-1.1-2.13-1.66-.18-.14-.37-.29-.56-.43-.04-.03-.09-.05-.15-.08-.12,.15-.24,.29-.34,.43-.11,.15-.25,.27-.32,.46,.12,.09,.22,.18,.34,.27,.38,.3,.75,.59,1.13,.88,.05,.03,.11,.07,.11,.17-.05,.07-.11,.15-.17,.23-.18,.24-.37,.47-.55,.71-.05,.06-.11,.11-.11,.2,.03,.08,.11,.11,.17,.16,.25,.19,.49,.39,.74,.58,.05,.04,.12,.07,.13,.17-.02,.03-.04,.07-.07,.11-.39,.5-.77,.99-1.16,1.49-.02,.03-.06,.04-.08,.06-.1-.02-.15-.08-.21-.12-.25-.19-.49-.38-.74-.58-.05-.04-.09-.09-.19-.06-.09,.11-.19,.24-.29,.37-.11,.13-.21,.27-.32,.41-.11,.13-.18,.27-.31,.37-.11,0-.17-.07-.23-.12-.38-.29-.75-.59-1.13-.88-.07-.05-.13-.12-.21-.13-.03,.01-.04,.02-.05,.03-.19,.25-.39,.49-.58,.74-.01,.02-.01,.06-.02,.09,.05,.04,.09,.09,.14,.13,.22,.17,.44,.35,.67,.52,.63,.49,1.25,.97,1.87,1.46,.06,.05,.14,.08,.15,.17,0,.02,0,.04-.02,.05-.25,.32-.49,.64-.74,.95-.02,.03-.06,.04-.09,.07-.07-.05-.12-.08-.18-.13-1.16-.9-2.33-1.8-3.49-2.7-.57-.44-1.13-.89-1.7-1.33-.07-.05-.13-.12-.23-.13-.07,.05-.12,.14-.18,.21"/><g><path class="i" d="M105.61,33.1c.83-.26,.34-1.24,3.09-1.6,1.54-.21,1.35-1.7,4.85-.99,1.57,.29,2.06,1.3,2.47,2.61-1.57-.74-3.59-.32-2.76-.41,1.45-.17,2.09,1.91,2.21,2.43-1.63-1.65-3.35-.79-3.39-.46,1.6-.27,2.56,1.13,2.63,1.45-2.04-.69-5.55,2.42-6.91-.44-.46-.97-3.16-1.69-2.2-2.6"/><path class="i" d="M90.68,28.83h1.92l1.13-2.56,1.55,2.88h1.85l2.57-1.59-2.57,3.6c-1.95-.4-4.29-.4-7.02,0l-1.9-3.54,2.47,1.21Z"/><path class="i" d="M124.02,62.27c-1.09,.69-5.75,.33-5.75,.33,0,0-.83-3.09,1.26-3.09s5.58,2.1,4.48,2.75"/><path class="i" d="M106.58,60.65c-1.11,.67-5.79,.33-5.79,.33,0,0-.8-3.1,1.27-3.1s5.61,2.1,4.52,2.77"/><path class="i" d="M88.68,61.51c-1.1,.66-5.77,.32-5.77,.32,0,0-.85-3.1,1.24-3.1s5.58,2.1,4.53,2.78"/><path class="i" d="M79.12,40.09s3.11-.85,3.11,1.25-2.06,5.61-2.75,4.52c-.67-1.1-.35-5.77-.35-5.77"/><path class="i" d="M122.02,52.81c.25-1.34-1.56-3.43-2.06-3.85-.31-.25-.19-.69-.04-1.07-1.01-.92-2.13-1.27-2.13-1.27l.08-.32s1.14,.38,2.18,1.3c.07-.13,.13-.22,.13-.22,4.28-1.16,6.29-5.95,3.95-8.46-2.35-2.48-5.46-2.58-9.21-1.15-3.76,1.42-6.46,1.52-7.62,1.08-2.52-.9-2.18-5.18-2.18-5.18-3.49,6.91,2.68,7.34,5.27,6.94,2.72-.42,4.41-1.43,8.28-.92,2.85,.38,3.22,2.55,2.1,3.84-1.27,1.47-3.42,.57-3.42,.57-1.68-1.32-9.96-.48-11.97-.31-1.98,.15-3.59-1.59-3.59-1.59l-1.23-2.67c.29,1.99,.13,4.01-.87,5.16,.6-2.77-.92-3.54,.13-6.8l-1.89-4.14c-1.67-2.84-8.07-.96-8.07-.96,0,0-3.51,2.5-5.22,3.36-.52,.25,.83,6.02,1.87,5.56,.55-.29,3.57-.93,3.57-.93v2.75l-1.28,3.17-6.84-1.15-1.26,1.15,.5,.77,.37,.43c2.86,.48,9.44,5.67,9.44,5.67-1.12,.66-4.57,4.75-4.57,4.75l2.96,1.85,5.7-6.18c6.85,2.5,11.63-3.01,12.38-2.35,.75,.67-.27,1.5,.07,3.1,.21,.94,0,2.76,0,2.76l-1.72,.69,1.64,1.41s1.33,0,2.76-.85c.97-.57,1.08-3.52,.73-4.01-.3-.43,1.06-1.49,1.42-1.78-1.87-2.81-5.21-2.43-5.26-2.41l-.03-.35s4.01-.5,5.9,3.05l-.07,.03c5.55,4.91,9.85,2.29,9.85,2.29,0,0,.5,1.86,.25,4.29l1.75,2.05,1.42-8.77s-4.42,1.01-4.18-.32m-32.25-17.92c-.27,.07-.52,.02-.56-.11-.04-.16,.17-.35,.45-.42,.27-.05,.54,0,.55,.13,.04,.14-.14,.33-.45,.39m1.8,16.74c-.88-1.9-.12-3.07-1.23-7.05,1.95,2.24,1.81,4.34,1.23,7.05m.69-15.07c0-1.96-.42-2.69-.42-2.69l.51,.03c.12,.8-.1,2.66-.1,2.66m2.89,10.74c-1.14-4.36,.48-5.6,1.53-10.8,1.26,4.71-1.55,6.77-1.53,10.8m2.62,6.59v-1.93c1.57,1.02,4.17,.92,7.76-.22-4.14,3.08-7.76,2.14-7.76,2.14"/></g><g><path class="d" d="M118.05,108.15l.94,1.55v21.92l-15.28-.94c-.73,.6-1.69,.93-2.85,.93s-2.05-.32-2.77-.93l-15.35,.94v-21.92l.71-1.35-2.13,.08v24.76l16.26-1.24c.62,.37,1.23,.62,1.82,.8,.57,.15,1.14,.26,1.67,.26s1.05-.11,1.58-.26c.57-.18,1.11-.43,1.65-.8l16.16,1.24v-24.93l-2.41-.12Z"/><path class="d" d="M98.37,129.54c.43,.54,1.05,.91,2.02,1.14-.17-1.63-.79-2.78-1.82-3.46-1.08-.7-2.75-1.05-5.02-1.05-1.09,0-2.21,.08-3.42,.25-1.2,.12-2.52,.34-3.89,.64l-1.8,3.62,13.93-1.14Z"/><path class="d" d="M93.34,125.23c3.29,0,5.64,.79,7.09,2.38v-17.76c0-1.79-.56-3.12-1.7-3.99-1.09-.9-2.76-1.33-4.99-1.33-1.13,0-2.32,.07-3.53,.22-1.2,.18-2.46,.4-3.73,.73v20.55c1.47-.28,2.8-.48,3.93-.58,1.13-.13,2.11-.21,2.91-.21"/><polygon class="d" points="85.56 106.45 83.69 109.89 83.69 129.79 85.56 126.14 85.56 106.45"/><path class="d" d="M108.11,126.16c-4.51,0-6.73,1.49-6.73,4.52,.92-.16,1.61-.56,2.12-1.15l14.01,1.15-1.85-3.58c-1.45-.31-2.85-.57-4.1-.69-1.26-.16-2.42-.25-3.44-.25"/><polygon class="d" points="118.05 110.09 116.17 106.54 116.17 126.14 118.05 129.72 118.05 110.09"/><path class="d" d="M108.23,125.23c1.15,0,2.33,.08,3.49,.21,1.18,.11,2.35,.34,3.51,.62v-20.63c-1.39-.3-2.68-.53-3.86-.69-1.17-.15-2.25-.22-3.23-.22-2.35,0-4.14,.47-5.37,1.44-.94,.77-1.45,2.08-1.45,3.93v17.77c.88-.93,1.83-1.55,2.84-1.89,.98-.36,2.35-.54,4.08-.54"/></g><path class="f" d="M62.42,.05s-13.24-.62-29.98,3.13C8.85,8.47,.02,15.66,.02,15.66v62.84H62.42V.05Z"/><path class="d" d="M57.82,5.9s-11.38-.53-25.77,2.67C11.78,13.09,4.2,19.23,4.2,19.23v54.81H57.82V5.9Z"/><g><path class="f" d="M31.56,35c-5.31,0-9.64,4.31-9.64,9.58s4.33,9.61,9.64,9.61,9.58-4.31,9.58-9.61-4.31-9.58-9.58-9.58m0,17.51c-4.39,0-7.94-3.57-7.94-7.93s3.55-7.89,7.94-7.89,7.88,3.54,7.88,7.89-3.54,7.93-7.88,7.93"/><path class="f" d="M50.51,48.96v-8.73h-3.77c-.31-1.16-.8-2.25-1.36-3.31l2.67-2.68-6.14-6.17-2.71,2.67c-1.03-.58-2.15-1.03-3.29-1.35v-3.79h-8.72v3.79c-1.15,.32-2.27,.77-3.32,1.35l-2.67-2.67-6.19,6.17,2.68,2.68c-.57,1.06-1.03,2.15-1.37,3.31h-3.76v8.73h3.76c.34,1.14,.81,2.24,1.37,3.3l-2.68,2.67,6.19,6.16,2.67-2.67c1.04,.6,2.14,1.05,3.32,1.38v3.79h8.72v-3.79c1.16-.33,2.28-.78,3.29-1.38l2.71,2.67,6.14-6.16-2.67-2.67c.57-1.05,1.05-2.16,1.36-3.3h3.77Zm-5.23-1.07c-.35,1.45-.89,2.81-1.67,4.06l-.34,.57,2.4,2.4-3.76,3.78-2.42-2.41-.6,.36c-1.22,.74-2.59,1.31-4.02,1.65l-.65,.18v3.39h-5.34v-3.39l-.66-.18c-1.45-.34-2.81-.92-4.05-1.65l-.58-.36-2.4,2.41-3.78-3.78,2.41-2.41-.36-.56c-.76-1.25-1.33-2.61-1.66-4.06l-.18-.64h-3.38v-5.35h3.38l.18-.64c.32-1.43,.9-2.8,1.66-4.04l.36-.58-2.41-2.41,3.78-3.75,2.4,2.38,.58-.32c1.25-.78,2.62-1.36,4.05-1.69l.66-.15v-3.41h5.34v3.41l.65,.15c1.42,.33,2.78,.91,4.02,1.69l.6,.32,2.42-2.38,3.76,3.75-2.4,2.41,.34,.58c.78,1.25,1.32,2.61,1.67,4.04l.16,.64h3.4v5.35h-3.4l-.16,.64Z"/></g></g></g><rect class="j" x="493.72" width="1.77" height="176.64"/><g><g><path class="g" d="M663.16,131.85c0-3.24-3.73-5.3-10.5-5.3-7.17,0-10.9,1.96-10.9,5.2,0,2.4,1.47,4.02,4.39,4.88h12.41c3.02-.86,4.6-2.49,4.6-4.78Z"/><path class="g" d="M714.23,40.01h-117.82c-8.82,0-15.96,7.23-15.96,16.16V120.47c0,8.92,7.15,16.16,15.96,16.16h33c-.54-1.26-.82-2.63-.82-4.09,0-5.3,4.12-9.23,12.08-11.29-3.53-1.08-5.3-2.94-5.3-5.6,0-3.53,2.55-5.79,7.66-6.97-8.05-2.36-11.48-6.21-12.08-13.65-.09-1.16-.11-3.96,.89-6.71,4.02-11.07,24.72-16.88,24.72-16.88l-1.45-2.66,9.98,3.04-1.66,9.06-2.08-2.29c-9.85,3.28-14.84,8.27-16.34,12.18-1.44,3.76-.58,11.52,6.78,11.64,7.36,.12,10.27-5.78,8.07-10.73-2.2-4.95-8.85-4.66-8.85-4.66l9.4-6.44c3.17,.95,5.64,2.34,7.43,3.64,3.57,2.59,5.83,6.69,5.85,11.1v.09c0,8.25-4.91,13.06-14.53,14.73-6.28,1.08-10.21,.1-10.21,3.63,0,3.04,3.93,2.65,12.47,3.73,9.82,1.28,14.92,5.99,14.92,13.35,0,2.15-.41,4.06-1.19,5.76h39.11c8.82,0,15.97-7.23,15.97-16.16V56.17c0-8.92-7.15-16.16-15.97-16.16Z"/></g><path class="d" d="M661.39,117.51c-8.54-1.08-12.47-.69-12.47-3.73,0-3.53,3.93-2.55,10.21-3.63,9.62-1.67,14.53-6.48,14.53-14.73v-.09c-.02-4.41-2.27-8.51-5.85-11.1-1.79-1.3-4.25-2.69-7.43-3.64l-9.4,6.44s6.65-.29,8.85,4.66c2.2,4.95-.7,10.85-8.07,10.73-7.36-.13-8.21-7.89-6.78-11.64,1.5-3.91,6.49-8.9,16.34-12.18l2.08,2.29,1.66-9.06-9.98-3.04,1.45,2.66s-20.7,5.81-24.72,16.88c-1,2.74-.98,5.54-.89,6.71,.6,7.44,4.03,11.3,12.08,13.65-5.1,1.18-7.66,3.44-7.66,6.97,0,2.65,1.77,4.52,5.3,5.6-7.95,2.06-12.07,5.99-12.07,11.29,0,1.46,.28,2.83,.82,4.09h16.73c-2.92-.86-4.39-2.48-4.39-4.88,0-3.24,3.73-5.2,10.9-5.2,6.77,0,10.5,2.06,10.5,5.3,0,2.29-1.57,3.92-4.6,4.78h16.56c.78-1.7,1.19-3.61,1.19-5.76,0-7.36-5.1-12.08-14.92-13.35Z"/><path class="e" d="M675.5,70.29c1.02,0,2.01,.26,2.98,.78,.97,.52,1.72,1.27,2.27,2.24,.54,.97,.81,1.99,.81,3.04s-.26,2.05-.8,3.01c-.53,.97-1.28,1.71-2.24,2.25-.96,.53-1.97,.8-3.02,.8s-2.06-.27-3.02-.8c-.96-.53-1.72-1.28-2.25-2.25-.53-.96-.8-1.97-.8-3.01s.27-2.07,.82-3.04c.54-.97,1.3-1.72,2.27-2.24,.97-.52,1.96-.78,2.98-.78m4.37,3.53c-.45-.81-1.08-1.44-1.89-1.87-.81-.44-1.63-.65-2.48-.65s-1.68,.22-2.49,.65c-.81,.44-1.44,1.06-1.89,1.87-.46,.81-.68,1.66-.68,2.53s.23,1.71,.67,2.51c.45,.8,1.07,1.43,1.88,1.87,.8,.45,1.64,.67,2.51,.67s1.71-.22,2.51-.67c.81-.45,1.43-1.07,1.87-1.87,.44-.8,.67-1.64,.67-2.51s-.23-1.72-.68-2.53m-2.41,4.1c.22,.95,.38,1.6,.51,1.86h-.9c-.11-.19-.26-.78-.44-1.62-.2-.94-.57-1.29-1.37-1.32h-.83v2.94h-.87v-6.68c.44-.09,1.09-.15,1.68-.15,.94,0,1.55,.18,1.97,.56,.33,.29,.53,.75,.53,1.29,0,.88-.57,1.48-1.28,1.72v.03c.51,.18,.83,.66,.99,1.37m-.6-3.03c0-.87-.63-1.26-1.56-1.26-.43,0-.72,.04-.87,.08v2.46h.9c.94,0,1.53-.51,1.53-1.29"/><path class="d" d="M584.93,78.15h14.23v5.69c4.61-4.71,9.33-6.58,15.51-6.58,9.82,0,15.41,6.09,15.41,17.57v28.76h-14.33v-26.8c0-6.28-1.87-9.33-6.38-9.33s-7.75,2.94-10.21,7.17v28.96h-14.23v-45.45Z"/><g><path class="h" d="M567.24,59.48c4.79,0,8.49,3.7,8.49,8.49s-3.7,8.49-8.49,8.49-8.49-3.81-8.49-8.49,3.7-8.49,8.49-8.49"/><rect class="h" x="558.75" y="77.99" width="16.69" height="45.98"/></g></g></g></g></g></svg>